<svg xmlns="http://www.w3.org/2000/svg" viewBox="0 0 800 1000" role="img" aria-label="Portrait placeholder">
  <rect width="800" height="1000" fill="#f2eee6"/>
  <path d="M0 760c132-104 238-142 318-114 84 29 136 48 217 6 73-38 132-38 265 0v348H0Z" fill="#d8ded6"/>
  <circle cx="430" cy="346" r="138" fill="#c9b79e"/>
  <path d="M240 722c30-142 102-216 216-222 106-6 190 70 254 222Z" fill="#415f52"/>
  <path d="M300 274c50-92 188-122 280-48 56 45 78 119 52 190-46-40-104-60-174-60-72 0-124-27-158-82Z" fill="#181714"/>
</svg>
